HIERARCHY
ROOT Hips
{
	OFFSET 0.000000 0.000000 0.000000
	CHANNELS 6 Xposition Yposition Zposition Xrotation Yrotation Zrotation
	JOINT LeftUpLeg_virtual
	{
		OFFSET 0.000000 0.000000 0.000000
		CHANNELS 3 Xrotation Yrotation Zrotation
		JOINT LeftUpLeg
		{
			OFFSET 10.205400 -3.823500 0.155100
			CHANNELS 3 Xrotation Yrotation Zrotation
			JOINT LeftLeg
			{
				OFFSET 0.708757 -12.982077 0.567790
				CHANNELS 3 Xrotation Yrotation Zrotation
				JOINT LeftFoot
				{
					OFFSET -0.708756 -10.717838 -2.184338
					CHANNELS 3 Xrotation Yrotation Zrotation
					JOINT LeftToeBase
					{
						OFFSET 0.108149 -7.191104 7.560241
						CHANNELS 3 Xrotation Yrotation Zrotation
						JOINT LeftToe_End
						{
							OFFSET 0.070230 0.081724 4.490308
							CHANNELS 3 Xrotation Yrotation Zrotation
							End Site
							{
								OFFSET 0 0 0
							}
						}
					}
				}
			}
		}
	}
	JOINT RightUpLeg_virtual
	{
		OFFSET 0.000000 0.000000 0.000000
		CHANNELS 3 Xrotation Yrotation Zrotation
		JOINT RightUpLeg
		{
			OFFSET -10.205400 -3.823500 0.005500
			CHANNELS 3 Xrotation Yrotation Zrotation
			JOINT RightLeg
			{
				OFFSET -0.708756 -12.982134 0.610632
				CHANNELS 3 Xrotation Yrotation Zrotation
				JOINT RightFoot
				{
					OFFSET 0.708754 -10.717769 -1.945823
					CHANNELS 3 Xrotation Yrotation Zrotation
					JOINT RightToeBase
					{
						OFFSET -0.108140 -7.191069 7.372968
						CHANNELS 3 Xrotation Yrotation Zrotation
						JOINT RightToe_End
						{
							OFFSET -0.070227 0.081735 4.479403
							CHANNELS 3 Xrotation Yrotation Zrotation
							End Site
							{
								OFFSET 0 0 0
							}
						}
					}
				}
			}
		}
	}
	JOINT Spine_virtual
	{
		OFFSET 0.000000 0.000000 0.000000
		CHANNELS 3 Xrotation Yrotation Zrotation
		JOINT Spine
		{
			OFFSET 0.000000 6.876099 0.125700
			CHANNELS 3 Xrotation Yrotation Zrotation
			JOINT Spine1
			{
				OFFSET 0.000000 5.730043 0.104720
				CHANNELS 3 Xrotation Yrotation Zrotation
				JOINT Spine1_split
				{
					OFFSET 0.000000 5.730043 0.104720
					CHANNELS 3 Xrotation Yrotation Zrotation
					JOINT Spine2
					{
						OFFSET 0.000000 5.730043 0.104720
						CHANNELS 3 Xrotation Yrotation Zrotation
						JOINT Neck_virtual
						{
							OFFSET 0.000000 0.000000 0.000000
							CHANNELS 3 Xrotation Yrotation Zrotation
							JOINT Neck
							{
								OFFSET 0.000000 10.314075 0.188496
								CHANNELS 3 Xrotation Yrotation Zrotation
								JOINT Head
								{
									OFFSET 0.000000 7.643700 -2.377400
									CHANNELS 3 Xrotation Yrotation Zrotation
									JOINT HeadTop_End
									{
										OFFSET 0.000000 43.788605 -13.619600
										CHANNELS 3 Xrotation Yrotation Zrotation
										End Site
										{
											OFFSET 0 0 0
										}
									}
								}
							}
						}
						JOINT LeftShoulder_virtual
						{
							OFFSET 0.000000 0.000000 0.000000
							CHANNELS 3 Xrotation Yrotation Zrotation
							JOINT LeftShoulder
							{
								OFFSET 2.196100 4.412489 0.087492
								CHANNELS 3 Xrotation Yrotation Zrotation
								JOINT LeftShoulder_split
								{
									OFFSET 2.196100 4.412489 0.087492
									CHANNELS 3 Xrotation Yrotation Zrotation
									JOINT LeftArm
									{
										OFFSET 8.771219 -2.981674 -0.026999
										CHANNELS 3 Xrotation Yrotation Zrotation
										JOINT LeftForeArm
										{
											OFFSET 8.512804 0.000000 -0.000000
											CHANNELS 3 Xrotation Yrotation Zrotation
											JOINT LeftHand
											{
												OFFSET 18.484802 0.000000 -0.000000
												CHANNELS 3 Xrotation Yrotation Zrotation
												End Site
												{
													OFFSET 0 0 0
												}
											}
										}
									}
								}
							}
						}
						JOINT RightShoulder_virtual
						{
							OFFSET 0.000000 0.000000 0.000000
							CHANNELS 3 Xrotation Yrotation Zrotation
							JOINT RightShoulder
							{
								OFFSET -2.196100 4.412496 0.070690
								CHANNELS 3 Xrotation Yrotation Zrotation
								JOINT RightShoulder_split
								{
									OFFSET -2.196100 4.412496 0.070690
									CHANNELS 3 Xrotation Yrotation Zrotation
									JOINT RightArm
									{
										OFFSET -8.771282 -2.981682 -0.094208
										CHANNELS 3 Xrotation Yrotation Zrotation
										JOINT RightForeArm
										{
											OFFSET -8.494598 0.000000 0.000000
											CHANNELS 3 Xrotation Yrotation Zrotation
											JOINT RightHand
											{
												OFFSET -18.483803 0.000000 0.000001
												CHANNELS 3 Xrotation Yrotation Zrotation
												End Site
												{
													OFFSET 0 0 0
												}
											}
										}
									}
								}
							}
						}
					}
				}
			}
		}
	}
}
MOTION
Frames: 5
Frame Time: 0.03333333
0.081836 27.237612 0.277983 0.000000 0.000000 0.000000 -7.686118 -51.293925 -1.426298 -31.579684 11.277241 22.390139 63.451221 -5.252595 4.327314 -33.679075 -4.683779 -19.484856 -2.608176 0.337076 1.588697 0.000000 0.000000 0.000000 -8.421055 -48.222027 -0.762716 -15.057258 -8.065745 -36.471967 58.893654 -6.140539 -12.106276 -32.027744 -10.509736 28.687409 0.610086 1.051933 0.306658 0.000000 0.000000 0.000000 -7.101677 -47.344272 -0.517725 10.965561 8.299032 -1.187072 1.531535 1.712426 -0.797415 0.741426 0.870825 0.387508 0.000000 0.000000 0.000000 2.172404 0.923633 -0.639077 -1.492289 10.594203 3.105590 8.936692 20.259449 -4.576323 0.000000 0.000000 0.000000 2.644046 0.851597 -0.859087 0.705364 1.378193 -5.348714 -1.490343 -1.153808 -1.732994 -53.185727 2.892654 -50.242776 -172.165614 -75.202391 -168.080451 0.000000 0.000000 0.000000 3.283318 1.223353 -0.802897 2.300409 11.421727 -7.118689 0.516243 -0.027664 1.620582 -53.418988 30.221576 85.664560 -179.089022 70.168712 177.401227 0.000000 0.000000 0.000000 
0.096697 27.281944 0.349325 0.000000 0.000000 0.000000 -7.435596 -51.305557 -1.173652 -31.194010 11.042509 22.182875 63.687457 -5.477662 4.418008 -33.214069 -4.423278 -19.192232 -2.843111 0.297405 1.511768 0.000000 0.000000 0.000000 -8.568703 -48.075717 -0.696729 -14.816343 -8.641894 -36.404171 58.595325 -6.502257 -11.904290 -32.624733 -10.739807 27.971940 1.217530 1.123325 0.056977 0.000000 0.000000 0.000000 -7.086297 -47.241085 -0.585974 10.898468 8.323461 -1.342061 1.492391 1.603098 -0.765635 0.886617 1.507644 0.673543 0.000000 0.000000 0.000000 2.031894 0.909956 -0.625359 -1.688817 11.056431 2.993392 8.514387 20.530896 -4.523448 0.000000 0.000000 0.000000 2.676259 0.795596 -0.764809 0.702378 0.782957 -5.620985 -0.729438 -1.199265 -0.620135 -53.835510 4.190617 -50.490015 -176.749368 -75.510678 -172.898931 0.000000 0.000000 0.000000 3.243719 1.177300 -0.731394 2.264318 11.696935 -7.029074 0.514748 -0.529055 1.251943 -53.595545 30.130324 85.204281 -179.215544 69.879939 177.579058 0.000000 0.000000 0.000000 
0.085877 27.372999 0.383236 0.000000 0.000000 0.000000 -7.200151 -51.258886 -0.895798 -30.603667 10.950818 22.195087 63.608056 -6.276631 4.251320 -32.875504 -4.147059 -18.896360 -3.097380 0.215548 1.360018 0.000000 0.000000 0.000000 -8.640167 -48.110258 -0.595472 -14.415124 -9.431702 -36.203011 57.715529 -6.610581 -11.612828 -33.191591 -10.915943 26.952008 0.998320 1.220395 -0.368103 0.000000 0.000000 0.000000 -6.864189 -47.445902 -0.530344 10.729222 8.380211 -1.539756 1.457731 1.501383 -0.800629 0.629962 1.481767 0.633340 0.000000 0.000000 0.000000 1.880328 0.979859 -0.687857 -1.862506 11.779132 3.040967 8.158765 21.071053 -4.077616 0.000000 0.000000 0.000000 2.773072 0.833201 -0.719307 0.603587 -0.157426 -5.868830 -0.043877 -0.081643 1.019063 -55.028457 6.381230 -49.991015 179.496279 -74.227436 -176.952129 0.000000 0.000000 0.000000 3.101805 1.227221 -0.719441 2.254617 11.972425 -6.486884 0.329414 -1.059653 0.887512 -54.081878 30.785582 84.572379 -179.570004 69.589389 177.995987 0.000000 0.000000 0.000000 
0.092023 27.493879 0.430908 0.000000 0.000000 0.000000 -7.023883 -51.435952 -0.710117 -29.868025 11.291668 22.475327 63.163335 -7.382639 3.757417 -32.793473 -3.695001 -18.562709 -3.263899 0.100372 1.155074 0.000000 0.000000 0.000000 -8.533607 -48.646930 -0.483827 -14.041873 -10.227633 -35.856109 56.393068 -6.338492 -11.291558 -33.287214 -10.938833 25.754475 -0.048726 1.272560 -0.724762 0.000000 0.000000 0.000000 -6.476964 -48.274718 -0.303121 10.412518 8.467691 -1.733971 1.428850 1.482612 -0.904405 0.275058 1.173547 0.501484 0.000000 0.000000 0.000000 1.737276 1.156041 -0.802214 -2.006344 12.526406 3.229891 7.963167 22.122296 -3.472840 0.000000 0.000000 0.000000 2.793417 0.993949 -0.772127 0.490993 -1.042457 -5.855841 0.514635 1.447905 2.429091 -55.889051 8.426983 -49.164907 178.448063 -72.211581 -178.458554 0.000000 0.000000 0.000000 2.910215 1.381270 -0.811232 2.236759 12.194055 -5.561707 0.177624 -1.163804 0.528728 -54.856176 32.205131 84.025185 -179.944762 69.304229 178.441192 0.000000 0.000000 0.000000 
0.087893 27.622292 0.587357 0.000000 0.000000 0.000000 -6.820996 -52.286570 -0.621176 -28.985284 12.161421 23.012138 62.230168 -8.375180 2.932163 -33.288399 -2.895644 -17.885766 -3.347656 -0.028481 0.969823 0.000000 0.000000 0.000000 -8.090357 -49.901953 -0.306212 -14.061538 -10.588002 -35.411491 54.810045 -5.560432 -11.007622 -32.666148 -10.695310 24.624751 -1.291673 1.223918 -0.857377 0.000000 0.000000 0.000000 -5.866870 -49.731342 0.121223 9.964710 8.554831 -1.879514 1.346196 1.574717 -1.072766 -0.067678 0.819253 0.183995 0.000000 0.000000 0.000000 1.600514 1.408427 -0.981211 -2.162477 13.195154 3.440894 7.719266 23.738270 -2.958894 0.000000 0.000000 0.000000 2.709301 1.274187 -0.906614 0.378482 -1.473476 -5.358435 0.265826 1.988574 2.650974 -55.271206 9.955877 -47.723788 179.273915 -69.585332 -178.111376 0.000000 0.000000 0.000000 2.698680 1.611747 -0.987337 2.164577 12.211203 -4.551994 0.007766 -1.310582 0.277915 -56.078114 34.532986 83.875228 179.760580 69.184837 178.787879 0.000000 0.000000 0.000000 
